<?xml version="1.0" encoding="utf-8"?>
<?xml-stylesheet type="text/xsl" href="rss1.xsl"?>
<rss version="2.0" xmlns:atom="http://www.w3.org/2005/Atom" xmlns:content="http://purl.org/rss/1.0/modules/content/" xmlns:dc="http://purl.org/dc/elements/1.1/" xmlns:media="http://search.yahoo.com/mrss/">
<channel>
 <title>Getty</title>
 <link>http://www.gettyimg.com/</link>
 <atom:link href="http://www.gettyimg.com/" rel="self" type="application/rss+xml" />

 
                <item>
                <title><![CDATA[【Cinema Center】SERIES - The Tiny Chef Show - Season 1 - 1080p Amazon WEB-DL DDP2.0 H.264-LAZY]]></title>
                <link><![CDATA[https://sharemania.us/threads/the-tiny-chef-show-season-1-1080p-amazon-web-dl-ddp2-0-h-264-lazy.233123/]]></link>
                <description><![CDATA[<article>
<blockquote class="messageText SelectQuoteContainer ugc baseHtml">
The Tiny Chef Show:<img src="http:////cdn2.broadcasthe.net/tvdb/banners/v4/series/392893/banners/6321036e5f1ce.jpg" class="bbCodeImage LbImage" alt="[​IMG]" data-url="http:////cdn2.broadcasthe.net/tvdb/banners/v4/series/392893/banners/6321036e5f1ce.jpg" style=""> <br>
<br>
<div class="bbCodeBlock bbCodeQuote">
<aside>
<blockquote class="quoteContainer"><div class="quote"><i><b>Synopsis:</b></i><br>
The series follows the titular social media sensation and herbivore as he introduces and cooks new recipes for the world’s tiniest plant-based dishes from his tree-stump home.</div><div class="quoteExpand">Click to expand...</div></blockquote>
</aside>
</div>
<div class="ToggleTriggerAnchor bbCodeSpoilerContainer">
<button type="button" class="button bbCodeSpoilerButton ToggleTrigger Tooltip JsOnly" data-target="> .SpoilerTarget"><span>Spoiler: <span class="SpoilerTitle">MediaInfo</span></span></button>
<div class="SpoilerTarget bbCodeSpoilerText">General<br>
Unique ID : 80057206040474488362694179865922237503 (0x3C3A75006CC3A2730419BA5DECEDF43F)<br>
Complete name : The.Tiny.Chef.Show.S01E01E02.Pancakes.-.SMores.1080p.AMZN.WEB-DL.DDP2.0.H.264-LAZY.mkv<br>
Format : Matroska<br>
Format version : Version 4<br>
File size : 1.32 GiB<br>
Duration : 22 min 38 s<br>
Overall bit rate : 8 361 kb/s<br>
Encoded date : UTC 2023-11-29 22:20:26<br>
Writing application : mkvmerge v80.0 ('Roundabout') 64-bit<br>
Writing library : libebml v1.4.4 + libmatroska v1.7.1<br>
<br>
Video<br>
ID : 1<br>
Format : AVC<br>
Format/Info : Advanced Video Codec<br>
Format profile : High@L4<br>
Format settings : CABAC / 4 Ref Frames<br>
Format settings, CABAC : Yes<br>
Format settings, Reference frames : 4 frames<br>
Codec ID : V_MPEG4/ISO/AVC<br>
Duration : 22 min 38 s<br>
Bit rate mode : Constant<br>
Bit rate : 8 135 kb/s<br>
Nominal bit rate : 10 000 kb/s<br>
Width : 1 920 pixels<br>
Height : 1 080 pixels<br>
Display aspect ratio : 16:9<br>
Frame rate mode : Constant<br>
Frame rate : 23.976 (24000/1001) FPS<br>
Color space : YUV<br>
Chroma subsampling : 4:2:0<br>
Bit depth : 8 bits<br>
Scan type : Progressive<br>
Bits/(Pixel*Frame) : 0.164<br>
Stream size : 1.29 GiB (97%)<br>
Default : Yes<br>
Forced : No<br>
Color range : Limited<br>
Color primaries : BT.709<br>
Transfer characteristics : BT.709<br>
Matrix coefficients : BT.709<br>
<br>
Audio<br>
ID : 2<br>
Format : E-AC-3<br>
Format/Info : Enhanced AC-3<br>
Commercial name : Dolby Digital Plus<br>
Codec ID : A_EAC3<br>
Duration : 22 min 38 s<br>
Bit rate mode : Constant<br>
Bit rate : 224 kb/s<br>
Channel(s) : 2 channels<br>
Channel layout : L R<br>
Sampling rate : 48.0 kHz<br>
Frame rate : 31.250 FPS (1536 SPF)<br>
Compression mode : Lossy<br>
Stream size : 36.3 MiB (3%)<br>
Language : English<br>
Service kind : Complete Main<br>
Default : Yes<br>
Forced : No<br>
<br>
Text<br>
ID : 3<br>
Format : UTF-8<br>
Codec ID : S_TEXT/UTF8<br>
Codec ID/Info : UTF-8 Plain Text<br>
Duration : 21 min 54 s<br>
Bit rate : 84 b/s<br>
Count of elements : 431<br>
Stream size : 13.6 KiB (0%)<br>
Title : SDH<br>
Language : English<br>
Default : No<br>
Forced : No</div>
</div><br>
Screenshots:<br>
<img src="https://i.imgur.com/eeOvD5F.jpg" class="bbCodeImage LbImage" alt="[​IMG]" data-url="https://i.imgur.com/eeOvD5F.jpg" style=""> <br>
<br>
<div class="bbCodeBlock bbCodeVfcHH HiddenContent">
<div class="attribution type">Hidden Content:</div>
<blockquote>You must either reply or click 'Like' to see the hidden information contained here.</blockquote>
</div>
<div class="messageTextEndMarker">&nbsp;</div>
</blockquote>
</article>]]></description>
                <author><![CDATA[LazyRips]]></author>
                </item>

                
                <item>
                <title><![CDATA[【Requests】[REQ AUD] - MGMT - "Bubblegum Dog" single (24bit FLAC)]]></title>
                <link><![CDATA[https://sharemania.us/threads/mgmt-bubblegum-dog-single-24bit-flac.233125/]]></link>
                <description><![CDATA[<article>
<blockquote class="messageText SelectQuoteContainer ugc baseHtml">
I like HD - please, help!
<div class="messageTextEndMarker">&nbsp;</div>
</blockquote>
</article>]]></description>
                <author><![CDATA[Nick Skrip]]></author>
                </item>

                
                <item>
                <title><![CDATA[【Singles (lossless)】FLAC - Ephoria - Love You Right ('97 Remixes) 44.1kHz FLAC RARE]]></title>
                <link><![CDATA[https://sharemania.us/threads/ephoria-love-you-right-97-remixes-44-1khz-flac-rare.233124/]]></link>
                <description><![CDATA[<article>
<blockquote class="messageText SelectQuoteContainer ugc baseHtml">
<b><span style="font-size: 15px">Ephoria - Love You Right ('97 Remixes)</span></b> - FLAC 44.1kHz direct CD Rip.<br>
This is rare and hard to find Australian CD.<br>
<img src="https://i.discogs.com/uhIQlx76x1lM0z24ClPmjOtkAu-iBPL6yl-T49QBO1Y/rs:fit/g:sm/q:90/h:460/w:600/czM6Ly9kaXNjb2dz/LWRhdGFiYXNlLWlt/YWdlcy9SLTI4NDk4/NzEtMTcwMTM5MjU3/NS02MDQxLmpwZWc.jpeg" class="bbCodeImage LbImage" alt="[​IMG]" data-url="https://i.discogs.com/uhIQlx76x1lM0z24ClPmjOtkAu-iBPL6yl-T49QBO1Y/rs:fit/g:sm/q:90/h:460/w:600/czM6Ly9kaXNjb2dz/LWRhdGFiYXNlLWlt/YWdlcy9SLTI4NDk4/NzEtMTcwMTM5MjU3/NS02MDQxLmpwZWc.jpeg" style=""> <br>
<ol>
<li>Love You Right <b><i><span style="font-size: 12px">Tyme NRG Radio Edit</span></i></b></li>
<li>Love You Right <b><i><span style="font-size: 12px">Tyme NRG Club Mix</span></i></b></li>
<li>Love You Right <b><i><span style="font-size: 12px">Tyme Club Mix</span></i></b></li>
<li>Love You Right <b><i><span style="font-size: 12px">Tyme Radio Edit</span></i></b></li>
<li>Love You Right <b><i><span style="font-size: 12px">Original Radio Edit - original 1992 version</span></i></b></li>
<li>Love You Right <b><i><span style="font-size: 12px">Original Club Mix - original 1992 version</span></i></b></li>
</ol>LINK:
<div class="bbCodeBlock bbCodeVfcHH HiddenContent">
<div class="attribution type">Hidden Content:</div>
<blockquote>You must either reply or click 'Like' to see the hidden information contained here.</blockquote>
</div>
<div class="messageTextEndMarker">&nbsp;</div>
</blockquote>
</article>]]></description>
                <author><![CDATA[taseci5000]]></author>
                </item>

                </channel></rss>